<svg xmlns="http://www.w3.org/2000/svg" viewBox="0 0 128 128"><path fill="#DCDDDE" stroke="#D9D9D9" stroke-width=".596" d="M126.8 61.4c-10.2-1.4-47.7-3.3-64.4-6-13.5-2.2-26.6-6.2-39.2-10.4-3.2-1.1-9-3.3-12.7-5.3-2.3-1.8-7.9-4.4-9.5-6.9 24.3 11.6 34.1 14.7 62.7 20.5 11.6 2.3 53.7 5.7 63.1 8.1h0z"/><path fill="#231F20" stroke="#231F20" stroke-width=".596" d="M126.8 58.7c-10.2-1.4-47.7-3.3-64.4-6-13.5-2.2-26.6-6.2-39.2-10.4-3.2-1.1-9-3.3-12.7-5.3-2.3-1.8-7.9-4.4-9.5-6.9 24.3 11.6 34.1 14.7 62.7 20.5 11.7 2.3 53.8 5.7 63.1 8.1h0z"/><path fill="#231F20" d="M28.3 91.4h-5.4l-1.4-4.1H14l-1.4 4.1H7.4l7.4-20.2h6l7.5 20.2zm-8.1-7.8l-2.5-7.2-2.5 7.2h5zm26.5 0c0 1.3-.2 2.4-.6 3.4-.4 1-.9 1.9-1.5 2.5-.6.7-1.4 1.2-2.2 1.6-.8.4-1.7.5-2.6.5-.9 0-1.6-.1-2.2-.3-.6-.2-1.2-.4-1.9-.8v6.3h-4.9V76.2h4.9v1.6c.7-.6 1.5-1.1 2.3-1.4.8-.4 1.7-.6 2.7-.6 1.9 0 3.4.7 4.4 2.1 1.1 1.3 1.6 3.2 1.6 5.7zm-5 .1c0-1.5-.3-2.5-.8-3.2-.5-.7-1.3-1-2.4-1-.5 0-.9.1-1.4.2-.5.1-.9.3-1.4.6v7.6c.3.1.7.2 1 .2.4 0 .7.1 1.1.1 1.3 0 2.2-.4 2.9-1.1.7-.8 1-1.9 1-3.4zm17.8 6.1c-.3.2-.6.4-1 .7-.4.3-.8.5-1.1.7-.5.2-1 .4-1.5.5-.5.1-1.1.2-1.7.2-1.4 0-2.7-.4-3.6-1.3-1-.9-1.5-2-1.5-3.4 0-1.1.2-2 .7-2.7.5-.7 1.2-1.3 2.1-1.7.9-.4 2-.7 3.4-.9 1.3-.2 2.7-.3 4.2-.4v-.1c0-.8-.3-1.4-1-1.7s-1.7-.5-3-.5c-.8 0-1.7.1-2.6.4-.9.3-1.6.5-2 .7h-.4v-3.7c.5-.1 1.4-.3 2.5-.5 1.2-.2 2.3-.3 3.5-.3 2.8 0 4.8.4 6 1.3s1.8 2.2 1.8 4v10.3h-4.8v-1.6zm0-2.4v-3.2c-.7.1-1.4.1-2.1.2-.8.1-1.3.2-1.7.3-.5.2-.9.4-1.1.7-.3.3-.4.7-.4 1.2 0 .3 0 .6.1.8.1.2.2.4.4.6.2.2.5.3.7.4.3.1.7.1 1.4.1.5 0 1-.1 1.5-.3.3-.2.8-.5 1.2-.8zm17.2 4.4c-1.3 0-2.5-.2-3.6-.5s-2-.8-2.9-1.5c-.8-.7-1.4-1.5-1.9-2.5-.4-1-.7-2.2-.7-3.5 0-1.4.2-2.6.7-3.7s1.1-1.9 2-2.6c.8-.6 1.8-1.1 2.8-1.4 1.1-.3 2.2-.4 3.3-.4 1 0 2 .1 2.9.3.9.2 1.7.5 2.4.9v4.2H81c-.2-.2-.4-.4-.7-.6-.3-.2-.6-.4-1-.6-.4-.2-.8-.4-1.2-.5-.4-.1-1-.2-1.5-.2-1.3 0-2.3.4-3 1.2-.7.8-1 1.9-1 3.4s.4 2.6 1.1 3.3c.7.8 1.7 1.1 3 1.1.6 0 1.2-.1 1.7-.2s.9-.3 1.2-.5c.3-.2.6-.4.8-.6.2-.2.5-.4.6-.6h.7v4.2c-.8.4-1.6.6-2.4.9-.7.3-1.6.4-2.6.4zm23.6-.4h-4.9v-7.5c0-.6 0-1.2-.1-1.8s-.2-1.1-.3-1.3c-.2-.3-.4-.6-.8-.7-.3-.2-.8-.2-1.5-.2-.4 0-.9.1-1.3.2-.4-.1-.9.2-1.4.5v10.8h-4.9V70.3H90v7.5c.9-.7 1.7-1.2 2.5-1.6.8-.4 1.7-.5 2.7-.5 1.6 0 2.9.5 3.8 1.4.9 1 1.4 2.4 1.4 4.3v10zm19.5-6.7h-11.2c.1 1.2.5 2.1 1.4 2.7.8.6 2.1.9 3.7.9 1 0 2-.2 3-.6 1-.4 1.7-.8 2.3-1.2h.5v3.9c-1.1.4-2.1.8-3.1 1-1 .2-2.1.3-3.2.3-3 0-5.4-.7-7-2.1-1.6-1.4-2.4-3.3-2.4-5.9 0-2.5.8-4.5 2.3-6 1.5-1.5 3.6-2.2 6.3-2.2 2.5 0 4.3.6 5.6 1.9 1.2 1.2 1.9 3 1.9 5.4v1.9zm-4.8-2.9c0-1-.3-1.8-.8-2.3-.5-.5-1.2-.8-2.2-.8-.9 0-1.7.2-2.3.7-.6.5-.9 1.3-1 2.3h6.3z"/></svg>