<svg version="1.0" xmlns="http://www.w3.org/2000/svg" width="210.667" height="278.667" viewBox="0 0 300 210"><path d="M21.1 82.2C13.2 99 7.2 114 3.5 126.5c-6.9 23.2-1.1 45.9 16 63.1C33.2 203.4 50.2 210 68 208.5c4.7-.4 10.5-.6 13-.4 2.5.2 8.8.4 14 .3 29.5-.3 55.2-22.7 60.6-52.6 3.2-17.6-1.2-34.1-19.6-74.1L129.6 68h-13.5l4.6 9.7c8.4 18 15.5 34.7 19.1 45.3 7.9 23.3 4.8 40.7-10 56.5-6.5 7-11.6 10.5-19.9 13.6l-5.2 2 6.3-6.8c7.2-7.9 14.2-21.4 16.1-31.1 3.5-18.4-1.3-36.6-21-78.5l-5-10.7h-6.6c-3.6 0-6.5.1-6.5.3 0 .2 3.5 8 7.8 17.3C109.5 115 116 134 116 144.1c0 23-17.9 45.7-40 50.8-7.4 1.7-19.1 1.3-26.2-.9-21-6.5-36.8-27.7-36.8-49.5 0-11.2 7.4-32.8 21.1-61.4 3.8-7.9 6.9-14.6 6.9-14.8 0-.1-3-.3-6.6-.3h-6.5l-6.8 14.2z"/></svg>