<svg version="1.0" xmlns="http://www.w3.org/2000/svg"
 width="158.000000pt" height="209.000000pt" viewBox="0 0 300 210"
 preserveAspectRatio="xMidYMid meet">
<g transform="translate(0.000000,209.000000) scale(0.100000,-0.100000)"
fill="#000000" stroke="none">
<path d="M211 1268 c-79 -168 -139 -318 -176 -443 -69 -232 -11 -459 160 -631
137 -138 307 -204 485 -189 47 4 105 6 130 4 25 -2 88 -4 140 -3 295 3 552
227 606 526 32 176 -12 341 -196 741 l-64 137 -68 0 -67 0 46 -97 c84 -180
155 -347 191 -453 79 -233 48 -407 -100 -565 -65 -70 -116 -105 -199 -136
l-52 -20 63 68 c72 79 142 214 161 311 35 184 -13 366 -210 785 l-50 107 -66
0 c-36 0 -65 -1 -65 -3 0 -2 35 -80 78 -173 137 -294 202 -484 202 -585 0
-230 -179 -457 -400 -508 -74 -17 -191 -13 -262 9 -210 65 -368 277 -368 495
0 112 74 328 211 614 38 79 69 146 69 148 0 1 -30 3 -66 3 l-65 0 -68 -142z"/>
</g>
</svg>
